<?xml version="1.0" encoding="UTF-8"?>
<svg width="24px" height="24px" viewBox="0 0 24 24" version="1.1" xmlns="http://www.w3.org/2000/svg" xmlns:xlink="http://www.w3.org/1999/xlink">
    <title></title>
    <defs>
        <rect id="path-1" x="0" y="0" width="24" height="24"></rect>
    </defs>
    <g id="0924-update" stroke="none" stroke-width="1" fill="none" fill-rule="evenodd">
        <g id="Real-Name-Identify-Pending-HK-M-Permit" transform="translate(-1413.000000, -310.000000)">
            <g id="Submitter-+-2233243-+-Document-Type-+-ID-Card-+-Name-+-孙某某-+-15332321232-+-Mobile-Phone-+-Email-Address-+-15332321232@163.com-+-Expired-Date-+-2027-03-01-+-ID-Card-Number-+-Overdue备份-+-321027199303030333-+-NO备份-+-Certificate-Images-+-WechatIMG39-恢复的-蒙版" transform="translate(1389.000000, 224.000000)">
                <g id="编组" transform="translate(24.000000, 86.000000)">
                    <g id="Fill-67" transform="translate(0.000000, 0.000000)">
                        <mask id="mask-2" fill="white">
                            <use xlink:href="#path-1"></use>
                        </mask>
                        <g id="蒙版"></g>
                        <path d="M20.4678663,1.5 C20.7601137,1.5 21,1.74496156 21,2.04477457 L21,2.04477457 L20.9859965,22.5 L8.69212556,22.5 L8.69212556,2.04477457 C8.69212556,1.74496156 8.93079421,1.5 9.22365039,1.5 L9.22365039,1.5 Z M19.632526,14.1002493 L17.3529969,14.1002493 L17.3529969,16.4339289 L19.632526,16.4339289 L19.632526,14.1002493 Z M15.9849141,14.1002493 L13.7059938,14.1002493 L13.7059938,16.4339289 L15.9849141,16.4339289 L15.9849141,14.1002493 Z M12.3385198,14.1002493 L10.0595995,14.1002493 L10.0595995,16.4339289 L12.3385198,16.4339289 L12.3385198,14.1002493 Z M19.632526,10.3678579 L17.3529969,10.3678579 L17.3529969,12.7002909 L19.632526,12.7002909 L19.632526,10.3678579 Z M15.9849141,10.3678579 L13.7059938,10.3678579 L13.7059938,12.7002909 L15.9849141,12.7002909 L15.9849141,10.3678579 Z M12.3385198,10.3678579 L10.0595995,10.3678579 L10.0595995,12.7002909 L12.3385198,12.7002909 L12.3385198,10.3678579 Z M19.632526,6.63359651 L17.3529969,6.63359651 L17.3529969,8.96665282 L19.632526,8.96665282 L19.632526,6.63359651 Z M15.9849141,6.63359651 L13.7059938,6.63359651 L13.7059938,8.96665282 L15.9849141,8.96665282 L15.9849141,6.63359651 Z M12.3385198,6.63359651 L10.0595995,6.63359651 L10.0595995,8.96665282 L12.3385198,8.96665282 L12.3385198,6.63359651 Z M19.632526,2.89995845 L17.3529969,2.89995845 L17.3529969,5.23363806 L19.632526,5.23363806 L19.632526,2.89995845 Z M15.9849141,2.89995845 L13.7059938,2.89995845 L13.7059938,5.23363806 L15.9849141,5.23363806 L15.9849141,2.89995845 Z M12.3385198,2.89995845 L10.0595995,2.89995845 L10.0595995,5.23363806 L12.3385198,5.23363806 L12.3385198,2.89995845 Z M7.48173454,5.69987534 C7.77459072,5.69987534 8.01386822,5.94546021 8.01386822,6.24464991 L8.01386822,6.24464991 L8.01386822,22.5 L3,22.5 L3,6.24464991 C3,5.94546021 3.2392775,5.69987534 3.53152483,5.69987534 L3.53152483,5.69987534 Z M6.64639426,18.3001247 L4.36747395,18.3001247 L4.36747395,20.6338043 L6.64639426,20.6338043 L6.64639426,18.3001247 Z M6.64639426,14.5671099 L4.36747395,14.5671099 L4.36747395,16.9001662 L6.64639426,16.9001662 L6.64639426,14.5671099 Z M6.64639426,10.8347185 L4.36747395,10.8347185 L4.36747395,13.1671515 L6.64639426,13.1671515 L6.64639426,10.8347185 Z M6.64639426,7.09983378 L4.36747395,7.09983378 L4.36747395,9.4335134 L6.64639426,9.4335134 L6.64639426,7.09983378 Z" fill="#330000" mask="url(#mask-2)"></path>
                    </g>
                </g>
            </g>
        </g>
    </g>
</svg>