<?xml version="1.0" encoding="UTF-8"?>
<svg width="16px" height="16px" viewBox="0 0 16 16" version="1.1" xmlns="http://www.w3.org/2000/svg" xmlns:xlink="http://www.w3.org/1999/xlink">
    <!-- Generator: Sketch 63.1 (92452) - https://sketch.com -->
    <desc>Created with Sketch.</desc>
    <g id="页面-1" stroke="none" stroke-width="1" fill="none" fill-rule="evenodd">
        <g id="KPI-guideline-12.16.V2" transform="translate(-852.000000, -1925.000000)" fill="#330000">
            <g id="编组-19" transform="translate(43.000000, 1826.000000)">
                <g id="icon_add_nor" transform="translate(809.000000, 99.000000)">
                    <path d="M8,0 C12.418278,0 16,3.581722 16,8 C16,12.418278 12.418278,16 8,16 C3.581722,16 0,12.418278 0,8 C0,3.581722 3.581722,0 8,0 Z M8.74994086,3.42925786 L7.25005914,3.42925786 L7.25,7.25 L3.42857143,7.25074557 L3.42857143,8.7506273 L7.25,8.75 L7.25005914,12.572115 L8.74994086,12.572115 L8.749,8.75 L12.5714286,8.7506273 L12.5714286,7.25074557 L8.749,7.25 L8.74994086,3.42925786 Z"></path>
                </g>
            </g>
        </g>
    </g>
</svg>