<?xml version="1.0" encoding="UTF-8"?>
<svg width="24px" height="24px" viewBox="0 0 24 24" version="1.1" xmlns="http://www.w3.org/2000/svg" xmlns:xlink="http://www.w3.org/1999/xlink">
    <title></title>
    <defs>
        <rect id="path-1" x="0" y="0" width="24" height="24"></rect>
    </defs>
    <g id="1104-update" stroke="none" stroke-width="1" fill="none" fill-rule="evenodd">
        <g id="Account-management-导入创建和更新-默认页" transform="translate(-472.000000, -172.000000)">
            <g id="组_20292" transform="translate(396.000000, 57.000000)">
                <g id="编组-10" transform="translate(56.000000, 95.000000)">
                    <g id="icon/pdf" transform="translate(20.000000, 20.000000)">
                        <mask id="mask-2" fill="white">
                            <use xlink:href="#path-1"></use>
                        </mask>
                        <g id="蒙版"></g>
                        <g id="编组-7备份" mask="url(#mask-2)">
                            <g transform="translate(1.000000, 0.000000)">
                                <path d="M16.1114242,0 L16.1114242,7.49451997 L22,7.49451997 L22,23.4401389 C22,23.7477391 21.7526105,24 21.4500886,24 L21.4500886,24 L3.79991141,24 C3.49809628,24 3.25,23.7477391 3.25,23.4401389 L3.25,23.4401389 L3.25,0.559861053 C3.25,0.252260885 3.49809628,0 3.79991141,0 L3.79991141,0 L16.1114242,0 Z M8.45714286,15 C7.12142857,15 6,15.9309896 6,17.5195313 C6,19.1276042 7.08571429,20 8.42142857,20 C9.10714286,20 9.67142857,19.7526042 10.1071429,19.2903646 L9.55,18.6914062 C9.26428571,18.9713542 8.90714286,19.1666667 8.45714286,19.1666667 C7.62142857,19.1666667 7.07857143,18.5351563 7.07857143,17.4869792 C7.07857143,16.4518229 7.67857143,15.8268229 8.47857143,15.8268229 C8.87857143,15.8268229 9.18571429,15.9960937 9.45,16.2304688 L10.0071429,15.6184896 C9.66428571,15.2929688 9.12857143,15 8.45714286,15 Z M12.4357143,15 C11.3642857,15 10.6071429,15.6054688 10.6071429,16.3932292 C10.6071429,17.0963542 11.1428571,17.4869792 11.6785714,17.6888021 L12.3857143,17.9622396 C12.8571429,18.1445312 13.1785714,18.2552083 13.1785714,18.6132812 C13.1785714,18.9518229 12.8857143,19.1666667 12.3357143,19.1666667 C11.8714286,19.1666667 11.3714286,18.9518229 10.9928571,18.6328125 L10.3857143,19.296875 C10.9,19.7460938 11.6071429,20 12.3142857,20 C13.5357143,20 14.2571429,19.3294271 14.2571429,18.5416667 C14.2571429,17.8450521 13.8357143,17.4739583 13.1928571,17.2330729 L12.5,16.9661458 C12.05,16.8033854 11.6714286,16.6796875 11.6714286,16.3346354 C11.6714286,16.015625 11.9714286,15.8268229 12.4357143,15.8268229 C12.8714286,15.8268229 13.2214286,15.9700521 13.5571429,16.2239583 L14.0928571,15.6184896 C13.6642857,15.2213542 13.05,15 12.4357143,15 Z M15.6142857,15.0911458 L14.5071429,15.0911458 L16.1214286,19.9088542 L17.3785714,19.9088542 L19,15.0911458 L17.9285714,15.0911458 L17.2428571,17.4348958 C17.0785714,17.96875 16.9571429,18.4505208 16.7928571,18.9908854 L16.7571429,18.9908854 C16.5857143,18.4505208 16.4785714,17.96875 16.3142857,17.4348958 L15.6142857,15.0911458 Z" id="路径-2" fill="#1E7144" fill-rule="evenodd"></path>
                                <path d="M9.2,2.66666667 L4,2.66666667 L4,12 L9.06666667,12 C9.53333334,12 10,11.5333333 10,11.0666667 L10,3.46666667 C10,3 9.66666667,2.66666667 9.2,2.66666667 Z" id="路径" fill="#000000" fill-rule="nonzero" opacity="0.5"></path>
                                <path d="M8.53333333,11.3333333 L0.8,11.3333333 C0.333333328,11.3333333 0,11 0,10.5333333 L0,2.8 C0,2.33333334 0.333333328,2 0.8,2 L8.6,2 C9,2 9.33333333,2.33333333 9.33333333,2.8 L9.33333333,10.6 C9.33333333,11 9,11.3333333 8.53333333,11.3333333 L8.53333333,11.3333333 Z" id="路径" fill="#17643A" fill-rule="nonzero"></path>
                                <polygon id="Fill-9" fill="#17643A" fill-rule="evenodd" points="17.4866268 0.762316584 17.4866268 6.09501108 21.6081351 6.09501108"></polygon>
                            </g>
                        </g>
                        <path d="M4.45855856,9.91393 L5.0990991,8.58420027 C5.24504504,8.27609216 5.38288288,7.95987594 5.53693693,7.59501108 L5.56936937,7.59501108 C5.74774775,7.95987594 5.88558558,8.27609216 6.03963964,8.58420027 L6.71261261,9.91393 L8.04234234,9.91393 L6.35585585,6.87338946 L7.93693693,3.91393 L6.67207207,3.91393 L6.1045045,5.14636243 C5.97477477,5.43014621 5.85315315,5.72203811 5.7072072,6.09501108 L5.66666666,6.09501108 C5.48828829,5.72203811 5.35855856,5.43014621 5.22072072,5.14636243 L4.62072072,3.91393 L3.29099099,3.91393 L4.87207207,6.8166327 L3.18558558,9.91393 L4.45855856,9.91393 Z" id="X" fill="#FFFFFF" fill-rule="nonzero" mask="url(#mask-2)"></path>
                    </g>
                </g>
            </g>
        </g>
    </g>
</svg>