<?xml version="1.0" encoding="UTF-8"?>
<svg width="22px" height="19px" viewBox="0 0 22 19" version="1.1" xmlns="http://www.w3.org/2000/svg" xmlns:xlink="http://www.w3.org/1999/xlink">
    <title></title>
    <g id="0924-update" stroke="none" stroke-width="1" fill="none" fill-rule="evenodd">
        <g id="Real-Name-Identify-View-details-滑动" transform="translate(-962.000000, -180.000000)">
            <g id="编组-4" transform="translate(328.000000, 171.000000)">
                <g id="form_calendar" transform="translate(325.000000, 0.000000)">
                    <g id="icon_rili" transform="translate(310.000000, 9.000000)">
                        <rect id="矩形" stroke="#330000" stroke-width="1.5" x="0" y="3.66666667" width="20" height="14" rx="1.11111111"></rect>
                        <path d="M1.11111111,3 L18.8888889,3 C19.5025386,3 20,3.49746139 20,4.11111111 L20,9 L20,9 L0,9 L0,4.11111111 C-7.51504168e-17,3.49746139 0.497461389,3 1.11111111,3 Z" id="矩形" fill="#330000"></path>
                        <rect id="矩形备份-2" fill="#330000" x="2.22222222" y="12.1111111" width="5.55555556" height="2.22222222" rx="1.11111111"></rect>
                        <rect id="矩形备份-3" fill="#330000" transform="translate(5.555556, 2.222222) rotate(-90.000000) translate(-5.555556, -2.222222) " x="3.33333333" y="1.11111111" width="4.44444444" height="2.22222222"></rect>
                        <rect id="矩形备份-4" fill="#330000" transform="translate(14.444444, 2.222222) rotate(-90.000000) translate(-14.444444, -2.222222) " x="12.2222222" y="1.11111111" width="4.44444444" height="2.22222222"></rect>
                    </g>
                </g>
            </g>
        </g>
    </g>
</svg>