<?xml version="1.0" encoding="UTF-8"?>
<svg width="16px" height="16px" viewBox="0 0 16 16" version="1.1" xmlns="http://www.w3.org/2000/svg" xmlns:xlink="http://www.w3.org/1999/xlink">
    <title></title>
    <defs>
        <rect id="path-1" x="0" y="0" width="16" height="16"></rect>
    </defs>
    <g id="0924-update" stroke="none" stroke-width="1" fill="none" fill-rule="evenodd">
        <g id="Environment-Protocol--account-management" transform="translate(-1791.000000, -124.000000)">
            <g id="filter" transform="translate(328.000000, 114.000000)">
                <g id="button/幽灵按钮/child备份" transform="translate(1448.000000, 2.000000)">
                    <g id="icon/导出" transform="translate(15.000000, 8.000000)">
                        <mask id="mask-2" fill="white">
                            <use xlink:href="#path-1"></use>
                        </mask>
                        <g id="蒙版"></g>
                        <g id="组_1-10" mask="url(#mask-2)" fill="#330000" fill-rule="nonzero">
                            <path d="M4.57479859,5.53607528 C4.73264784,5.69353034 4.98816729,5.69353034 5.14601653,5.53607528 L6.99952609,3.6700747 L6.99952609,12.347188 C6.99907826,12.4537637 7.0409896,12.5561521 7.11603991,12.6318285 C7.19109021,12.7075048 7.2931316,12.75027 7.39971565,12.7507159 L8.59944184,12.7507159 C8.7060259,12.75027 8.80806728,12.7075048 8.88311759,12.6318285 C8.95816789,12.5561521 9.00007923,12.4537637 8.9996314,12.347188 L8.9996314,3.6700747 L10.853141,5.53691772 C11.0109902,5.69437277 11.2665097,5.69437277 11.4243589,5.53691772 L12.2795008,4.68352784 C12.4377224,4.52501634 12.4377224,4.26833893 12.2795008,4.10982743 L9.42846612,1.26407124 L8.28266021,0.116670427 C8.20806735,0.04197353 8.10683173,0 8.00126376,0 C7.89569578,0 7.79446017,0.04197353 7.71986731,0.116670427 L6.57321889,1.26407124 L3.72049918,4.10982743 C3.56227757,4.26833893 3.56227757,4.52501634 3.72049918,4.68352784 L4.57479859,5.53607528 Z" id="路径_1-36"></path>
                            <path d="M16,7.75000284 L16,6.75002871 L12.500237,6.75002871 C12.4859144,6.75002871 12.4724343,6.75002871 12.4581117,6.7542409 L12.4581117,6.75002871 L11.7108104,6.75002871 C11.4348861,6.75002871 11.2112053,6.97369196 11.2112053,7.24959455 L11.2112053,8.24956868 C11.2112053,8.52547128 11.4348861,8.74913453 11.7108104,8.74913453 L12.4606393,8.74913453 L12.4606393,8.74492234 C12.4749618,8.74492234 12.4884419,8.74913453 12.5027645,8.74913453 L14.0024222,8.74913453 L14.0024222,13.9983669 L2.00010531,13.9983669 L2.00010531,10.0001552 L2.00010531,10.0001552 L2.00010531,8.74997696 L4.25043442,8.74997696 C4.52635868,8.74997696 4.75003949,8.52631372 4.75003949,8.25041112 L4.75003949,7.24959455 C4.75003949,6.97369196 4.52635868,6.75002871 4.25043442,6.75002871 L0,6.75002871 L0,7.75000284 L0,7.75000284 L0,12.7498735 L0,12.7498735 L0,16 L16,16 L16,7.75000284 Z" id="路径_2-10"></path>
                        </g>
                    </g>
                </g>
            </g>
        </g>
    </g>
</svg>