<?xml version="1.0" encoding="UTF-8"?>
<svg width="32px" height="32px" viewBox="0 0 32 32" version="1.1" xmlns="http://www.w3.org/2000/svg" xmlns:xlink="http://www.w3.org/1999/xlink">
    <title></title>
    <defs>
        <rect id="path-1" x="0" y="0" width="32" height="32" rx="2"></rect>
    </defs>
    <g id="1104-update" stroke="none" stroke-width="1" fill="none" fill-rule="evenodd">
        <g id="Environment-Protocol-Pending-details-文件" transform="translate(-1792.000000, -796.000000)">
            <g id="Submitter-+-2233243-+-Document-Type-+-ID-Card-+-Name-+-孙某某-+-15332321232-+-Mobile-Phone-+-Email-Address-+-15332321232@163.com-+-Expired-Date-+-2027-03-01-+-ID-Card-Number-+-Overdue备份-+-321027199303030333-+-NO备份-+-Certificate-Images-+-WechatIMG39-恢复的-蒙版" transform="translate(1389.000000, 224.000000)">
                <g id="编组" transform="translate(24.000000, 462.000000)">
                    <g id="编组-9" transform="translate(0.000000, 0.000000)">
                        <g id="Icon/quanping" transform="translate(379.000000, 110.000000)">
                            <mask id="mask-2" fill="white">
                                <use xlink:href="#path-1"></use>
                            </mask>
                            <use id="蒙版" fill-opacity="0.5" fill="#000000" xlink:href="#path-1"></use>
                            <path d="M9.8363696,23 L22.1636304,23 C22.6180043,23 23,23.3904632 23,23.8542115 L23,25.1463748 C23,25.6101231 22.6180043,26 22.1636304,26 L9.8363696,26 C9.38199573,26 9,25.6101231 9,25.1463748 L9,23.8542115 C9,23.3904632 9.38199573,23 9.8363696,23" id="Fill-169" fill="#FFFFFF" mask="url(#mask-2)"></path>
                            <path d="M17.0313704,21.5409244 C16.6963043,21.8797384 16.3315053,22 15.9998699,22 C15.6688063,22 15.3040074,21.8797384 14.969513,21.5409244 L9.43577599,15.9539623 C9.10242522,15.6180392 8.94918679,15.1566509 9.01494209,14.687168 C9.0606849,14.3691685 9.2036312,14.0794999 9.42834278,13.8505402 C9.70508681,13.5695443 10.0738883,13.4140137 10.4667047,13.4128573 C10.8589493,13.4117009 11.2283225,13.5654971 11.5062101,13.8453366 L14.5772684,16.9813898 L14.5772684,6.84414411 C14.5772684,6.38564666 14.9586491,6 15.411503,6 L15.9998699,6 L16.5888087,6 C17.0422343,6 17.423615,6.38564666 17.423615,6.84414411 L17.423615,16.9813898 L20.4946733,13.8453366 C20.7725609,13.5654971 21.1413623,13.4117009 21.5341788,13.4128573 C21.9269952,13.4140137 22.2952248,13.5695443 22.5719689,13.8505402 C22.7972522,14.0794999 22.9401985,14.3691685 22.9847978,14.687168 C23.0511249,15.1566509 22.8984582,15.6180392 22.5651074,15.9539623 L17.0313704,21.5409244 Z" id="Fill-170" fill="#FFFFFF" mask="url(#mask-2)"></path>
                        </g>
                    </g>
                </g>
            </g>
        </g>
    </g>
</svg>