<?xml version="1.0" encoding="UTF-8"?>
<svg width="16px" height="16px" viewBox="0 0 16 16" version="1.1" xmlns="http://www.w3.org/2000/svg" xmlns:xlink="http://www.w3.org/1999/xlink">
    <defs>
        <rect id="path-1" x="0" y="0" width="16" height="16"></rect>
    </defs>
    <g id="icon/import_disable-" stroke="none" stroke-width="1" fill="none" fill-rule="evenodd">
        <mask id="mask-2" fill="white">
            <use xlink:href="#path-1"></use>
        </mask>
        <g id="蒙版"></g>
        <g id="组_1-9" mask="url(#mask-2)" fill="#AAAAAA" fill-rule="nonzero">
            <path d="M3.72049918,8.0669791 C3.56227757,8.22550304 3.56227757,8.48220061 3.72049918,8.64072455 L6.5740614,11.4892317 L7.72070981,12.6333526 C7.79530267,12.7080554 7.89653828,12.7500322 8.00210626,12.7500322 C8.10767424,12.7500322 8.20890985,12.7080554 8.28350271,12.6333526 L9.43015112,11.4892317 L12.2837133,8.64072455 C12.4419349,8.48220061 12.4419349,8.22550304 12.2837133,8.0669791 L11.4268864,7.21352219 C11.2690372,7.05605478 11.0135177,7.05605478 10.8556685,7.21352219 L9.00215892,9.08051182 L9.00215892,0.403559581 C9.00260704,0.296684167 8.96046471,0.194032383 8.88504998,0.118301452 C8.80963526,0.0425705209 8.7071607,0 8.60028435,0 L7.40055816,0 C7.2939741,0.000445956411 7.19193272,0.0432144815 7.11688241,0.118896788 C7.04183211,0.194579094 6.99992077,0.296975534 7.0003686,0.403559581 L7.0003686,9.08135433 L5.14685904,7.2152072 C4.98900979,7.05773979 4.73349034,7.05773979 4.57564109,7.2152072 L3.72049918,8.0669791 Z" id="路径_1-35"></path>
            <path d="M16,4.75003949 L16,3.74998684 L12.500237,3.74998684 C12.4859144,3.74998684 12.4724343,3.74998684 12.4581117,3.75419936 L12.4581117,3.74998684 L11.7108104,3.74998684 C11.4348861,3.74998684 11.2112053,3.97366765 11.2112053,4.24959191 L11.2112053,5.24964457 C11.2112053,5.52556883 11.4348861,5.74924964 11.7108104,5.74924964 L12.4606393,5.74924964 L12.4606393,5.74503712 C12.4749618,5.74503712 12.4884419,5.74924964 12.5027645,5.74924964 L14.0024222,5.74924964 L14.0024222,13.9990522 L2.00010531,13.9990522 L2.00010531,9.50007898 L2.00010531,9.50007898 L2.00010531,5.75009215 L4.25043442,5.75009215 C4.52635868,5.75009215 4.75003949,5.52641134 4.75003949,5.25048707 L4.75003949,4.24959191 C4.75003949,3.97366765 4.52635868,3.74998684 4.25043442,3.74998684 L0,3.74998684 L0,4.75003949 L0,4.75003949 L0,9.75030277 L0,9.75030277 L0,16 L16,16 L16,4.75003949 Z" id="路径_2-9"></path>
        </g>
    </g>
</svg>