<?xml version="1.0" encoding="UTF-8"?>
<svg width="20px" height="20px" viewBox="0 0 20 20" version="1.1" xmlns="http://www.w3.org/2000/svg" xmlns:xlink="http://www.w3.org/1999/xlink">
    <!-- Generator: Sketch 63.1 (92452) - https://sketch.com -->
    <desc>Created with Sketch.</desc>
    <defs>
        <filter x="-4.3%" y="-1.1%" width="108.6%" height="102.2%" filterUnits="objectBoundingBox" id="filter-1">
            <feOffset dx="2" dy="0" in="SourceAlpha" result="shadowOffsetOuter1"></feOffset>
            <feGaussianBlur stdDeviation="2" in="shadowOffsetOuter1" result="shadowBlurOuter1"></feGaussianBlur>
            <feColorMatrix values="0 0 0 0 0   0 0 0 0 0   0 0 0 0 0  0 0 0 0.156386582 0" type="matrix" in="shadowBlurOuter1" result="shadowMatrixOuter1"></feColorMatrix>
            <feMerge>
                <feMergeNode in="shadowMatrixOuter1"></feMergeNode>
                <feMergeNode in="SourceGraphic"></feMergeNode>
            </feMerge>
        </filter>
    </defs>
    <g id="页面-1" stroke="none" stroke-width="1" fill="none" fill-rule="evenodd">
        <g id="V2-Customer-Satisfaction-wechat-OA-Rating" transform="translate(-24.000000, -1011.000000)" fill="#FFFFFF">
            <g id="view_aside" filter="url(#filter-1)">
                <g id="view_left-bar">
                    <g id="icon_logout" transform="translate(24.000000, 1011.000000)">
                        <path d="M10.000061,1 C15.5229682,1 20,5.47703183 20,11.000061 C20,16.5229682 15.5229682,21 10.000061,21 C4.47703183,21 0,16.5229682 0,11.000061 C0,5.47703183 4.47703183,1 10.000061,1 Z M13.2729654,5.6789552 C13.0077551,5.6789552 12.7534091,5.78440525 12.5659089,5.97188107 C12.3783354,6.15947895 12.2730374,6.41382497 12.2730374,6.67903525 C12.2730374,7.22503201 12.6090242,7.42796195 13.1850503,7.75498871 C14.5025324,9.0480567 14.9070983,11.0095825 14.2086111,12.7183737 C13.510246,14.4272625 11.8475975,15.543841 10.0014771,15.543841 C8.15545429,15.543841 6.49280578,14.4272625 5.79434301,12.7183737 C5.09595349,11.0095825 5.50042175,9.0480567 6.8180259,7.75498871 L6.8180259,7.74600433 L6.93504265,7.65103351 C7.40806568,7.28596959 7.76197237,7.20699 7.80296363,6.67903525 C7.84903302,6.10198377 7.35599042,5.6789552 6.80303565,5.6789552 C6.53333317,5.67874106 6.27498325,5.78765233 6.08701915,5.98103635 C3.96968258,7.6319661 3.11623916,10.4340447 3.95374018,12.9849267 C4.79126561,15.5358332 7.13968157,17.2866898 9.82352273,17.3612504 C12.5073639,17.4358355 14.949237,15.8180113 15.9271435,13.3175687 C16.9049523,10.8171262 16.2083938,7.97193234 14.1860281,6.20601221 L14.1860281,6.21602199 C14.0046314,5.88176865 13.6532882,5.67510336 13.2729654,5.6789552 Z M10.000061,3.7270297 C9.49747253,3.7270297 9.09005016,4.13445207 9.09005016,4.63704057 L9.09005016,8.27300693 C9.09005016,8.77559543 9.49747253,9.1830178 10.000061,9.1830178 C10.5026495,9.1830178 10.9100475,8.77559543 10.9100475,8.27300693 L10.9100475,4.63599077 C10.909486,4.13376847 10.5021613,3.7270297 10.000061,3.7270297 Z" id="Fill-1"></path>
                    </g>
                </g>
            </g>
        </g>
    </g>
</svg>