<?xml version="1.0" encoding="UTF-8"?>
<svg width="24px" height="24px" viewBox="0 0 24 24" version="1.1" xmlns="http://www.w3.org/2000/svg" xmlns:xlink="http://www.w3.org/1999/xlink">
    <title></title>
    <defs>
        <rect id="path-1" x="0" y="0" width="24" height="24"></rect>
    </defs>
    <g id="1104-update" stroke="none" stroke-width="1" fill="none" fill-rule="evenodd">
        <g id="Environment-Protocol-Pending-details-文件" transform="translate(-1465.000000, -788.000000)">
            <g id="Submitter-+-2233243-+-Document-Type-+-ID-Card-+-Name-+-孙某某-+-15332321232-+-Mobile-Phone-+-Email-Address-+-15332321232@163.com-+-Expired-Date-+-2027-03-01-+-ID-Card-Number-+-Overdue备份-+-321027199303030333-+-NO备份-+-Certificate-Images-+-WechatIMG39-恢复的-蒙版" transform="translate(1389.000000, 224.000000)">
                <g id="编组" transform="translate(24.000000, 462.000000)">
                    <g id="编组-9" transform="translate(0.000000, 0.000000)">
                        <g id="编组-10" transform="translate(32.000000, 82.000000)">
                            <g id="icon/pdf" transform="translate(20.000000, 20.000000)">
                                <mask id="mask-2" fill="white">
                                    <use xlink:href="#path-1"></use>
                                </mask>
                                <g id="蒙版"></g>
                                <g id="编组-7" mask="url(#mask-2)">
                                    <g transform="translate(2.250000, 0.000000)">
                                        <path d="M12.8614242,0 L12.8614242,7.49451997 L18.75,7.49451997 L18.75,23.4401389 C18.75,23.7477391 18.5026105,24 18.2000886,24 L18.2000886,24 L0.549911411,24 C0.248096279,24 0,23.7477391 0,23.4401389 L0,23.4401389 L0,0.559861053 C0,0.252260885 0.248096279,0 0.549911411,0 L0.549911411,0 L12.8614242,0 Z M5.3028258,12.112 L3.5188258,12.112 L3.5188258,18 L4.4468258,18 L4.4468258,15.768 L5.3348258,15.768 C6.6148258,15.768 7.5508258,15.176 7.5508258,13.888 C7.5508258,12.56 6.6148258,12.112 5.3028258,12.112 Z M9.2228258,12.112 L7.6948258,12.112 L7.6948258,18 L9.2708258,18 C11.0308258,18 12.0628258,16.944 12.0628258,15.032 C12.0628258,13.112 11.0308258,12.112 9.2228258,12.112 Z M15.7748258,12.112 L12.2868258,12.112 L12.2868258,18 L13.2148258,18 L13.2148258,15.464 L15.3908258,15.464 L15.3908258,14.688 L13.2148258,14.688 L13.2148258,12.888 L15.7748258,12.888 L15.7748258,12.112 Z M9.1588258,12.864 C10.4228258,12.864 11.1028258,13.56 11.1028258,15.032 C11.1028258,16.496 10.4228258,17.24 9.1588258,17.24 L8.6228258,17.24 L8.6228258,12.864 L9.1588258,12.864 Z M5.2148258,12.856 C6.1508258,12.856 6.6388258,13.112 6.6388258,13.888 C6.6388258,14.664 6.1908258,15.024 5.2468258,15.024 L4.4468258,15.024 L4.4468258,12.856 L5.2148258,12.856 Z" id="路径-2" fill="#E93831"></path>
                                        <polygon id="Fill-9" fill="#C91A13" points="14.2366268 0.762316584 14.2366268 6.09501108 18.3581351 6.09501108"></polygon>
                                    </g>
                                </g>
                            </g>
                        </g>
                    </g>
                </g>
            </g>
        </g>
    </g>
</svg>