<?xml version="1.0" encoding="UTF-8"?>
<svg width="24px" height="24px" viewBox="0 0 24 24" version="1.1" xmlns="http://www.w3.org/2000/svg" xmlns:xlink="http://www.w3.org/1999/xlink">
    <title></title>
    <defs>
        <rect id="path-1" x="0" y="0" width="24" height="24"></rect>
    </defs>
    <g id="0924-update" stroke="none" stroke-width="1" fill="none" fill-rule="evenodd">
        <g id="Real-Name-Identify-Pending-HK-M-Permit" transform="translate(-1413.000000, -650.000000)">
            <g id="Submitter-+-2233243-+-Document-Type-+-ID-Card-+-Name-+-孙某某-+-15332321232-+-Mobile-Phone-+-Email-Address-+-15332321232@163.com-+-Expired-Date-+-2027-03-01-+-ID-Card-Number-+-Overdue备份-+-321027199303030333-+-NO备份-+-Certificate-Images-+-WechatIMG39-恢复的-蒙版" transform="translate(1389.000000, 224.000000)">
                <g id="编组" transform="translate(24.000000, 86.000000)">
                    <g id="Fill-67" transform="translate(0.000000, 340.000000)">
                        <mask id="mask-2" fill="white">
                            <use xlink:href="#path-1"></use>
                        </mask>
                        <g id="蒙版"></g>
                        <g id="编组-15" mask="url(#mask-2)">
                            <g transform="translate(0.000000, 3.750133)">
                                <path d="M1.46563289,-4.4408921e-16 C0.657200105,-4.4408921e-16 0,0.638545714 0,1.42403143 L0,4.04999143 L24,4.04999143 L24,1.44840857 C23.9749107,0.638545714 23.3177106,-4.4408921e-16 22.5092778,-4.4408921e-16 L1.46563289,-4.4408921e-16 Z" id="Fill-100" fill="#330000"></path>
                                <path d="M0,15.7515481 L0.0250900221,15.7515481 C0.0250900221,16.5780101 0.681612266,17.2498668 1.49006853,17.2498668 L22.5350215,17.2498668 C23.3434778,17.2498668 24,16.5780101 24,15.7515481 L24,5.24986677 L0,5.24986677 L0,15.7515481 Z" id="Fill-101" fill="#330000"></path>
                                <polygon id="矩形" fill="#FFFFFF" points="12.5889984 12.5998668 21.0532842 12.5998668 21.0532842 14.2927239 12.5889984 14.2927239"></polygon>
                                <polygon id="矩形" fill="#FFFFFF" points="12.5889984 9.21415248 21.0532842 9.21415248 21.0532842 10.9070096 12.5889984 10.9070096"></polygon>
                                <path d="M8.58167486,12.948298 C8.45552035,12.6068907 8.16250945,12.3889223 7.8430743,12.3568006 L3.82573507,12.3515235 C3.50246414,12.3889223 3.20924014,12.6068907 3.08308563,12.948298 L2.44677251,14.6704776 L3.82168619,14.6704776 L7.8430743,14.6704776 L9.21820108,14.6704776 L8.58167486,12.948298 Z M7.4961494,9.95735885 C7.48336347,8.81818727 6.73730445,7.89904904 5.81756988,7.89904904 C4.88995065,7.89904904 4.13771176,8.83378922 4.13771176,9.9871861 C4.13771176,11.1403535 4.88995065,12.0750937 5.81756988,12.0750937 C6.63032883,12.0750937 7.30798313,11.357863 7.46375837,10.4047676" id="Fill-128" fill="#FFFFFF"></path>
                            </g>
                        </g>
                    </g>
                </g>
            </g>
        </g>
    </g>
</svg>