<?xml version="1.0" encoding="UTF-8"?>
<svg width="16px" height="16px" viewBox="0 0 16 16" version="1.1" xmlns="http://www.w3.org/2000/svg" xmlns:xlink="http://www.w3.org/1999/xlink">
    <!-- Generator: Sketch 63.1 (92452) - https://sketch.com -->
    <desc>Created with Sketch.</desc>
    <defs>
        <polygon id="path-1" points="0.00117073171 0.0156097561 15.9843707 0.0156097561 15.9843707 15.9999805 0.00117073171 15.9999805"></polygon>
    </defs>
    <g id="页面-1" stroke="none" stroke-width="1" fill="none" fill-rule="evenodd">
        <g id="KPI-guideline-12.16.V2" transform="translate(-824.000000, -2021.000000)">
            <g id="编组-19" transform="translate(43.000000, 1826.000000)">
                <g id="icon_reply_disable" transform="translate(781.000000, 195.000000)">
                    <g>
                        <mask id="mask-2" fill="white">
                            <use xlink:href="#path-1"></use>
                        </mask>
                        <g id="Clip-2"></g>
                        <path d="M15.0961951,0.0156097561 C15.5867317,0.0156097561 15.9843707,0.41324878 15.9843707,0.903804878 L15.9843707,15.112722 C15.9843707,15.6027317 15.5868098,15.9999805 15.0963512,15.9999805 C14.8403122,15.9999805 14.596722,15.8896195 14.4280585,15.6970146 L12.3604488,13.335961 L0.888195122,13.335961 C0.397639024,13.335961 -1.03383968e-12,12.938322 -1.03383968e-12,12.4477659 L-1.03383968e-12,0.903804878 C-1.03383968e-12,0.41324878 0.397639024,0.0156097561 0.888195122,0.0156097561 L15.0961951,0.0156097561 Z M7.99223415,7.11980488 L3.55205854,7.11980488 L3.55205854,8.89578537 L7.99223415,8.89578537 L7.99223415,7.11980488 Z M10.6562537,3.56766829 L3.55205854,3.56766829 L3.55205854,5.34372683 L10.6562537,5.34372683 L10.6562537,3.56766829 Z" id="Fill-9" fill="#D6D6D6" mask="url(#mask-2)"></path>
                    </g>
                </g>
            </g>
        </g>
    </g>
</svg>