<?xml version="1.0" encoding="UTF-8"?>
<svg width="24px" height="24px" viewBox="0 0 24 24" version="1.1" xmlns="http://www.w3.org/2000/svg" xmlns:xlink="http://www.w3.org/1999/xlink">
    <title></title>
    <defs>
        <rect id="path-1" x="0" y="0" width="24" height="24"></rect>
    </defs>
    <g id="0924-update" stroke="none" stroke-width="1" fill="none" fill-rule="evenodd">
        <g id="Real-Name-Identify-Pending-HK-M-Permit" transform="translate(-1413.000000, -480.000000)">
            <g id="Submitter-+-2233243-+-Document-Type-+-ID-Card-+-Name-+-孙某某-+-15332321232-+-Mobile-Phone-+-Email-Address-+-15332321232@163.com-+-Expired-Date-+-2027-03-01-+-ID-Card-Number-+-Overdue备份-+-321027199303030333-+-NO备份-+-Certificate-Images-+-WechatIMG39-恢复的-蒙版" transform="translate(1389.000000, 224.000000)">
                <g id="编组" transform="translate(24.000000, 86.000000)">
                    <g id="Fill-67" transform="translate(0.000000, 170.000000)">
                        <mask id="mask-2" fill="white">
                            <use xlink:href="#path-1"></use>
                        </mask>
                        <g id="蒙版"></g>
                        <path d="M20.525963,16.7905587 C20.1347243,15.807392 19.2260196,15.1796983 18.2353663,15.0871961 L18.2353663,15.0719993 L18.2241314,15.0719993 L5.77652946,15.0719993 L5.76397281,15.0719993 L5.76397281,15.0871961 C4.77398036,15.1796983 3.8646148,15.807392 3.47337613,16.7905587 L1.5,21.75 L5.76397281,21.75 L18.2353663,21.75 L22.5,21.75 L20.525963,16.7905587 Z M17.15946,8.17741116 C17.1198074,4.89688542 14.8060801,2.25 11.9537387,2.25 C9.07694486,2.25 6.74405211,4.94181508 6.74405211,8.26330609 C6.74405211,11.5841364 9.07694486,14.2759515 11.9537387,14.2759515 C14.4743202,14.2759515 16.5759063,12.2105087 17.0590068,9.46583516" id="Fill-128" fill="#330000" mask="url(#mask-2)"></path>
                    </g>
                </g>
            </g>
        </g>
    </g>
</svg>