<?xml version="1.0" encoding="UTF-8"?>
<svg width="19px" height="17px" viewBox="0 0 19 17" version="1.1" xmlns="http://www.w3.org/2000/svg" xmlns:xlink="http://www.w3.org/1999/xlink">
    <!-- Generator: Sketch 63.1 (92452) - https://sketch.com -->
    <desc>Created with Sketch.</desc>
    <g id="页面-1" stroke="none" stroke-width="1" fill="none" fill-rule="evenodd">
        <g id="V2-Customer-Satisfaction-wechat-OA-Rating-滑动查看评价" transform="translate(-1837.000000, -947.000000)" fill="#330000">
            <g id="表格" transform="translate(304.000000, 90.000000)">
                <g transform="translate(24.000000, 798.000000)" id="编组-18">
                    <g transform="translate(1509.000000, 59.000000)">
                        <g id="icon_view-history_nor">
                            <g>
                                <path d="M16.9998254,0 C17.5522187,0 18,0.47763188 18,1.06687292 L18.0008752,9.22301312 C17.1515602,8.46248335 16.0297895,8 14.8,8 C12.1490332,8 10,10.1490332 10,12.8 C10,14.0297895 10.4624833,15.1515602 11.2230131,16.0008752 L1.00019653,16 C0.447781308,16 0,15.5223681 0,14.9331271 L0,1.06687292 C0,0.47763188 0.447781308,0 1.00019653,0 L16.9998254,0 Z M7.99223415,7.11980488 L3.55205854,7.11980488 L3.55205854,8.89578537 L7.99223415,8.89578537 L7.99223415,7.11980488 Z M10.6562537,3.56766829 L3.55205854,3.56766829 L3.55205854,5.34372683 L10.6562537,5.34372683 L10.6562537,3.56766829 Z" id="Fill-11"></path>
                                <path d="M15,9 C17.209139,9 19,10.790861 19,13 C19,15.209139 17.209139,17 15,17 C12.790861,17 11,15.209139 11,13 C11,10.790861 12.790861,9 15,9 Z M15.5,11 L14.5,11 L14.5,14 L17.5,14 L17.5,13 L15.5,13 L15.5,11 Z" id="椭圆形-2"></path>
                            </g>
                        </g>
                    </g>
                </g>
            </g>
        </g>
    </g>
</svg>