<?xml version="1.0" encoding="UTF-8"?>
<svg width="24px" height="24px" viewBox="0 0 24 24" version="1.1" xmlns="http://www.w3.org/2000/svg" xmlns:xlink="http://www.w3.org/1999/xlink">
    <title></title>
    <defs>
        <rect id="path-1" x="0" y="0" width="24" height="24"></rect>
    </defs>
    <g id="1104-update" stroke="none" stroke-width="1" fill="none" fill-rule="evenodd">
        <g id="Environment-Protocol-Pending-details-文件--word" transform="translate(-1465.000000, -788.000000)">
            <g id="Submitter-+-2233243-+-Document-Type-+-ID-Card-+-Name-+-孙某某-+-15332321232-+-Mobile-Phone-+-Email-Address-+-15332321232@163.com-+-Expired-Date-+-2027-03-01-+-ID-Card-Number-+-Overdue备份-+-321027199303030333-+-NO备份-+-Certificate-Images-+-WechatIMG39-恢复的-蒙版" transform="translate(1389.000000, 224.000000)">
                <g id="编组" transform="translate(24.000000, 462.000000)">
                    <g id="编组-9" transform="translate(0.000000, 0.000000)">
                        <g id="编组-10" transform="translate(32.000000, 82.000000)">
                            <g id="icon/pdf" transform="translate(20.000000, 20.000000)">
                                <mask id="mask-2" fill="white">
                                    <use xlink:href="#path-1"></use>
                                </mask>
                                <g id="蒙版"></g>
                                <g id="编组-7备份" mask="url(#mask-2)">
                                    <g transform="translate(1.000000, 0.000000)">
                                        <path d="M16.1114242,0 L16.1114242,7.49451997 L22,7.49451997 L22,23.4401389 C22,23.7477391 21.7526105,24 21.4500886,24 L21.4500886,24 L3.79991141,24 C3.49809628,24 3.25,23.7477391 3.25,23.4401389 L3.25,23.4401389 L3.25,0.559861053 C3.25,0.252260885 3.49809628,0 3.79991141,0 L3.79991141,0 L16.1114242,0 Z M11.5,20 L6.5,20 C6.22385763,20 6,20.2238576 6,20.5 C6,20.7761424 6.22385763,21 6.5,21 L6.5,21 L11.5,21 C11.7761424,21 12,20.7761424 12,20.5 C12,20.2238576 11.7761424,20 11.5,20 L11.5,20 Z M18.5,18 L6.5,18 C6.22385763,18 6,18.2238576 6,18.5 C6,18.7761424 6.22385763,19 6.5,19 L6.5,19 L18.5,19 C18.7761424,19 19,18.7761424 19,18.5 C19,18.2238576 18.7761424,18 18.5,18 L18.5,18 Z M18.5,16 L6.5,16 C6.22385763,16 6,16.2238576 6,16.5 C6,16.7761424 6.22385763,17 6.5,17 L6.5,17 L18.5,17 C18.7761424,17 19,16.7761424 19,16.5 C19,16.2238576 18.7761424,16 18.5,16 L18.5,16 Z M18.5,14 L6.5,14 C6.22385763,14 6,14.2238576 6,14.5 C6,14.7761424 6.22385763,15 6.5,15 L6.5,15 L18.5,15 C18.7761424,15 19,14.7761424 19,14.5 C19,14.2238576 18.7761424,14 18.5,14 L18.5,14 Z" id="路径-2" fill="#426CA9" fill-rule="evenodd"></path>
                                        <path d="M9.2,2.66666667 L4,2.66666667 L4,12 L9.06666667,12 C9.53333334,12 10,11.5333333 10,11.0666667 L10,3.46666667 C10,3 9.66666667,2.66666667 9.2,2.66666667 Z" id="路径" fill="#000000" fill-rule="nonzero" opacity="0.5"></path>
                                        <path d="M8.53333333,11.3333333 L0.8,11.3333333 C0.333333328,11.3333333 0,11 0,10.5333333 L0,2.8 C0,2.33333334 0.333333328,2 0.8,2 L8.6,2 C9,2 9.33333333,2.33333333 9.33333333,2.8 L9.33333333,10.6 C9.33333333,11 9,11.3333333 8.53333333,11.3333333 L8.53333333,11.3333333 Z" id="路径" fill="#185ABD" fill-rule="nonzero"></path>
                                        <polygon id="路径" fill="#FFFFFF" fill-rule="nonzero" points="6.8 9.33333334 5.8 9.33333334 4.66666667 5.66666667 3.53333333 9.33333334 2.53333333 9.33333334 1.46666667 4 2.4 4 3.13333333 7.73333334 4.26666667 4.13333334 5.06666667 4.13333334 6.13333333 7.73333334 6.93333333 4 7.86666667 4 6.8 9.33333334"></polygon>
                                        <polygon id="Fill-9" fill="#29579A" fill-rule="evenodd" points="17.4866268 0.762316584 17.4866268 6.09501108 21.6081351 6.09501108"></polygon>
                                    </g>
                                </g>
                            </g>
                        </g>
                    </g>
                </g>
            </g>
        </g>
    </g>
</svg>